<svg width="40" height="40" viewBox="0 0 40 40" fill="none" xmlns="http://www.w3.org/2000/svg">
<path fill-rule="evenodd" clip-rule="evenodd" d="M24 12C24 14.21 22.21 16 20 16C17.79 16 16 14.21 16 12C16 9.79 17.79 8 20 8C22.21 8 24 9.79 24 12ZM22 12C22 12.5304 21.7893 13.0391 21.4142 13.4142C21.0391 13.7893 20.5304 14 20 14C19.4696 14 18.9609 13.7893 18.5858 13.4142C18.2107 13.0391 18 12.5304 18 12C18 11.4696 18.2107 10.9609 18.5858 10.5858C18.9609 10.2107 19.4696 10 20 10C20.5304 10 21.0391 10.2107 21.4142 10.5858C21.7893 10.9609 22 11.4696 22 12ZM14 13.5C14 14.6935 13.5259 15.8381 12.682 16.682C11.8381 17.5259 10.6935 18 9.5 18C8.90901 18.0001 8.32379 17.8838 7.77777 17.6577C7.23174 17.4316 6.73562 17.1002 6.31773 16.6823C5.89984 16.2644 5.56837 15.7683 5.34228 15.2222C5.11618 14.6762 4.99987 14.091 5 13.5C5 11.014 7.014 9 9.5 9C11.986 9 14 11.014 14 13.5ZM12 13.5C12 14.882 10.882 16 9.5 16C9.17166 16.0001 8.84651 15.9356 8.54314 15.81C8.23976 15.6844 7.96411 15.5002 7.73194 15.2681C7.49977 15.0359 7.31562 14.7602 7.19003 14.4569C7.06444 14.1535 6.99987 13.8283 7 13.5C7 12.118 8.118 11 9.5 11C10.882 11 12 12.118 12 13.5ZM0 25.454C0 21.828 6.662 20 10 20C10.801 20 11.794 20.105 12.84 20.316C14.133 19.31 16.673 18 20 18C23.327 18 25.867 19.31 27.16 20.316C28.206 20.105 29.199 20 30 20C33.337 20 40 21.827 40 25.454V32H0V25.454ZM2 25.454C2 25.218 2.094 24.903 2.512 24.481C2.949 24.041 3.64 23.597 4.549 23.2C6.38 22.4 8.605 22 10 22C11.395 22 13.622 22.4 15.45 23.2C16.36 23.597 17.051 24.042 17.488 24.481C17.906 24.903 18 25.218 18 25.454V30H2V25.454ZM24.55 21.045C23.1329 20.3542 21.5765 19.9967 20 20C18.125 20 16.568 20.495 15.45 21.045C17.89 21.942 20 23.413 20 25.455C20 23.413 22.11 21.942 24.55 21.045ZM22.512 24.481C22.094 24.903 22 25.218 22 25.454V30H38V25.454C38 25.218 37.906 24.903 37.488 24.481C37.051 24.041 36.36 23.597 35.451 23.2C33.62 22.4 31.395 22 30 22C28.605 22 26.378 22.4 24.55 23.2C23.64 23.597 22.949 24.042 22.512 24.481ZM30.5 18C32.986 18 35 15.986 35 13.5C35 11.014 32.986 9 30.5 9C29.909 8.99987 29.3238 9.11618 28.7778 9.34227C28.2317 9.56837 27.7356 9.89984 27.3177 10.3177C26.8998 10.7356 26.5684 11.2317 26.3423 11.7778C26.1162 12.3238 25.9999 12.909 26 13.5C26 14.6935 26.4741 15.8381 27.318 16.682C28.1619 17.5259 29.3065 18 30.5 18ZM30.5 16C31.882 16 33 14.882 33 13.5C33 12.118 31.882 11 30.5 11C30.1717 10.9999 29.8465 11.0644 29.5431 11.19C29.2398 11.3156 28.9641 11.4998 28.7319 11.7319C28.4998 11.9641 28.3156 12.2398 28.19 12.5431C28.0644 12.8465 27.9999 13.1717 28 13.5C28 14.882 29.118 16 30.5 16Z" fill="#333333"/>
</svg>
