<svg width="59" height="28" viewBox="0 0 59 28" fill="none" xmlns="http://www.w3.org/2000/svg">
<path d="M16.464 27H0.665V24.595C4.01967 21.3143 6.48633 18.6997 8.065 16.751C10.8523 13.2483 12.246 10.313 12.246 7.945C12.246 6.71167 11.8637 5.71267 11.099 4.948C10.359 4.15867 9.33533 3.764 8.028 3.764C6.89333 3.764 5.89433 4.134 5.031 4.874C4.19233 5.58933 3.64967 6.60067 3.403 7.908L0.887 6.872C1.183 5.022 2.00933 3.55433 3.366 2.469C4.74733 1.359 6.38767 0.804 8.287 0.804C10.5563 0.804 12.3077 1.45767 13.541 2.765C14.7743 4.07233 15.391 5.60167 15.391 7.353C15.391 10.683 13.8 14.2227 10.618 17.972C9.18733 19.6493 8.04033 20.9073 7.177 21.746C6.437 22.486 5.549 23.3123 4.513 24.225H16.464V27ZM37.3447 14.05C37.3447 18.2433 36.6417 21.4993 35.2357 23.818C33.8544 26.1367 31.7824 27.296 29.0197 27.296C26.2324 27.296 24.1111 26.112 22.6557 23.744C21.2497 21.3513 20.5467 18.12 20.5467 14.05C20.5467 10.0047 21.2374 6.78567 22.6187 4.393C24.0247 2.00033 26.1337 0.804 28.9457 0.804C31.7824 0.804 33.8791 2.00033 35.2357 4.393C36.6417 6.761 37.3447 9.98 37.3447 14.05ZM29.0197 24.521C30.8204 24.521 32.1277 23.6577 32.9417 21.931C33.7804 20.2043 34.1997 17.5773 34.1997 14.05C34.1997 10.5473 33.7681 7.93267 32.9047 6.206C32.0661 4.45467 30.7464 3.579 28.9457 3.579C25.4431 3.579 23.6917 7.06933 23.6917 14.05C23.6917 21.0307 25.4677 24.521 29.0197 24.521ZM48.9055 14.975H41.9495V12.385H48.9055V5.318H51.6805V12.385H58.7475V14.975H51.6805V22.116H48.9055V14.975Z" fill="#333333"/>
</svg>
