<svg width="120" height="119" viewBox="0 0 120 119" fill="none" xmlns="http://www.w3.org/2000/svg">
<path fill-rule="evenodd" clip-rule="evenodd" d="M46.0225 19.9656C31.149 28.5226 30.9115 28.6776 29.756 30.5721C28.873 32.0211 28.776 33.1266 28.7745 41.7706L28.7725 51.3616L30.1475 52.3196C32.534 53.9826 38.089 56.9296 38.8365 56.9296C39.231 56.9296 43.822 54.4461 49.038 51.4101C56.302 47.1831 58.8255 45.9476 59.8175 46.1316C60.53 46.2641 64.9855 48.6341 69.7185 51.3981C74.452 54.1621 78.866 56.5596 79.5285 56.7256C81.1825 57.1411 89.5305 52.3981 89.9585 50.7996C90.124 50.1836 90.262 45.9586 90.2655 41.4106C90.2755 29.3401 91.209 30.5751 75.03 21.2491C64.686 15.2866 61.5775 13.7186 59.78 13.5546C57.6475 13.3606 56.8865 13.7151 46.0225 19.9656ZM70.108 28.2226C75.1505 31.1336 79.6125 33.9961 80.024 34.5836C81.1125 36.1371 81.107 46.8326 80.0175 47.2506C79.578 47.4196 75.573 45.4301 70.423 42.4851C58.813 35.8456 59.847 35.8481 48.474 42.4296C43.7215 45.1796 39.6025 47.4296 39.3205 47.4296C38.1685 47.4296 37.684 45.1981 37.851 40.6611C37.99 36.8876 38.222 35.7321 39.07 34.5901C40.5215 32.6356 57.4775 22.9296 59.44 22.9296C60.4355 22.9296 64.026 24.7111 70.108 28.2226ZM28.844 60.5111C28.984 63.8001 29.2505 65.0156 30.0825 66.1566C30.7515 67.0746 35.916 70.3711 44.0825 75.0936C55.273 81.5646 57.3265 82.5831 59.2725 82.6281C61.3 82.6746 62.7865 81.9511 74.2955 75.3206C81.3205 71.2731 87.5695 67.4281 88.1825 66.7756C88.795 66.1236 89.516 64.8241 89.7845 63.8881C90.385 61.7946 90.429 56.9296 89.847 56.9296C89.6135 56.9296 83.032 60.5711 75.222 65.0216C65.3005 70.6756 60.5515 73.1161 59.4595 73.1216C58.347 73.1271 53.8895 70.8326 43.9855 65.1546C36.334 60.7686 29.757 56.9861 29.3695 56.7496C28.7805 56.3901 28.6945 57.0061 28.844 60.5111ZM15.578 91.8401C15.2685 92.3406 9.77246 105.061 9.77246 105.277C9.77246 105.361 10.5655 105.43 11.535 105.43C12.9545 105.43 13.3895 105.187 13.7725 104.18C14.1985 103.059 14.5275 102.93 16.956 102.93C19.4275 102.93 19.6915 103.039 19.978 104.18C20.2645 105.323 20.526 105.43 23.032 105.43C24.5395 105.43 25.7725 105.269 25.7725 105.072C25.7725 104.434 21.146 92.6996 20.64 92.0546C20.0985 91.3636 15.98 91.1891 15.578 91.8401ZM29.106 91.7631C28.9225 91.9461 28.7725 95.0961 28.7725 98.7631V105.43H34.0475C39.9685 105.43 42.048 104.748 42.5785 102.634C42.9885 101.002 42.132 99.1111 40.7905 98.6851C39.759 98.3581 39.7615 98.3371 41.01 96.8536C43.3995 93.5701 40.7905 91.0701 33.231 91.4416C31.1455 91.4351 29.289 91.5796 29.106 91.7631ZM50.078 91.8401C49.7685 92.3406 44.2725 105.061 44.2725 105.277C44.2725 105.361 45.024 105.43 45.942 105.43C47.238 105.43 47.7395 105.15 48.1815 104.18C48.6795 103.087 49.068 102.93 51.2725 102.93C53.477 102.93 53.8655 103.087 54.3635 104.18C54.8675 105.286 55.24 105.43 57.603 105.43C59.071 105.43 60.2725 105.274 60.2725 105.083C60.2725 104.469 55.628 92.7026 55.13 92.0546C54.5995 91.3636 50.48 91.1891 50.078 91.8401ZM63.2725 98.4021V105.43H65.7725H68.2725V102.68V99.9296H70.7725H73.2725V102.68V105.43H75.7865H78.3005L78.1615 98.5546L78.0225 91.6796H75.7725H73.5225L73.2725 94.4296L73.0225 97.1796L70.673 97.3311L68.324 97.4821L68.173 94.5811L68.0225 91.6796L65.6475 91.5271L63.2725 91.3746V98.4021ZM81.0815 92.2061C80.5155 93.6806 80.7575 93.9296 82.756 93.9296H84.7395L84.881 99.5546L85.0225 105.18L87.6475 105.331L90.2725 105.482V99.7056V93.9296H92.3075C94.1315 93.9296 94.1825 93.9296 94.1825 92.8046C94.0275 91.7146 93.827 91.6751 87.7065 91.5401C82.2775 91.4201 81.347 91.5136 81.0815 92.2061ZM96.8875 98.4061L93.853 105.43H95.7585C97.374 105.43 97.712 105.24 97.978 104.18C98.2635 103.042 98.531 102.93 100.952 102.93C103.304 102.93 103.678 103.074 104.181 104.18C104.688 105.292 105.053 105.43 107.489 105.43H110.227L109.048 102.305C108.399 100.586 107.197 97.4921 106.378 95.4296L104.889 91.6796L102.405 91.5311L99.922 91.3826L96.8875 98.4061ZM36.695 95.4016C36.801 96.1526 36.5235 96.8751 35.9745 97.2766C34.375 98.4461 33.7725 98.0686 33.7725 95.8966C33.7725 93.9731 33.847 93.8716 35.1475 94.0216C36.169 94.1391 36.567 94.4936 36.695 95.4016ZM18.25 99.8046C18.263 100.171 17.651 100.43 16.7725 100.43C15.023 100.43 15.03 100.455 16.08 98.0386L16.8875 96.1796L17.5575 97.6796C17.926 98.5046 18.2375 99.4611 18.25 99.8046ZM52.75 99.8046C52.763 100.171 52.151 100.43 51.2725 100.43C49.5515 100.43 49.4455 100.008 50.6055 97.7796L51.4385 96.1796L52.083 97.6796C52.4375 98.5046 52.7375 99.4611 52.75 99.8046ZM102.048 98.1636C103.01 100.467 103.027 100.43 101.038 100.43C99.867 100.43 99.375 100.227 99.5235 99.8046C100.937 95.7786 101.027 95.7201 102.048 98.1636ZM36.3055 99.9471C38.158 100.939 37.1685 103.43 34.9225 103.43C33.914 103.43 33.7725 103.183 33.7725 101.43C33.7725 99.2941 34.3995 98.9271 36.3055 99.9471Z" fill="white"/>
</svg>
