<svg width="41" height="40" viewBox="0 0 41 40" fill="none" xmlns="http://www.w3.org/2000/svg">
<path d="M23.965 2.5C24.2297 2.50001 24.4875 2.58401 24.7013 2.73991C24.9152 2.8958 25.074 3.11555 25.155 3.3675L26.53 7.64C27.1075 7.9225 27.66 8.24 28.1875 8.5975L32.5775 7.6525C32.8364 7.59724 33.1061 7.62556 33.3478 7.73339C33.5895 7.84121 33.7907 8.02298 33.9225 8.2525L37.3875 14.25C37.5198 14.4794 37.5759 14.7449 37.5476 15.0082C37.5193 15.2715 37.4081 15.519 37.23 15.715L34.2175 19.04C34.2614 19.6776 34.2614 20.3174 34.2175 20.955L37.23 24.285C37.4081 24.481 37.5193 24.7285 37.5476 24.9918C37.5759 25.2551 37.5198 25.5206 37.3875 25.75L33.9225 31.75C33.7904 31.9791 33.589 32.1603 33.3473 32.2677C33.1056 32.375 32.8361 32.403 32.5775 32.3475L28.1875 31.4025C27.6625 31.7575 27.1075 32.0775 26.5325 32.36L25.155 36.6325C25.074 36.8844 24.9152 37.1042 24.7013 37.2601C24.4875 37.416 24.2297 37.5 23.965 37.5H17.035C16.7704 37.5 16.5126 37.416 16.2987 37.2601C16.0849 37.1042 15.926 36.8844 15.845 36.6325L14.4725 32.3625C13.8966 32.0809 13.341 31.7592 12.81 31.4L8.42253 32.3475C8.16369 32.4028 7.89399 32.3744 7.65228 32.2666C7.41057 32.1588 7.20932 31.977 7.07753 31.7475L3.61253 25.75C3.48021 25.5206 3.42417 25.2551 3.45248 24.9918C3.48078 24.7285 3.59198 24.481 3.77003 24.285L6.78253 20.955C6.73889 20.3191 6.73889 19.6809 6.78253 19.045L3.77003 15.715C3.59198 15.519 3.48078 15.2715 3.45248 15.0082C3.42417 14.7449 3.48021 14.4794 3.61253 14.25L7.07753 8.25C7.20969 8.02093 7.41109 7.83969 7.65277 7.73232C7.89445 7.62496 8.16396 7.59701 8.42253 7.6525L12.81 8.6C13.34 8.2425 13.895 7.92 14.4725 7.6375L15.8475 3.3675C15.9282 3.11636 16.0863 2.8972 16.2992 2.74137C16.512 2.58555 16.7687 2.50106 17.0325 2.5H23.9625H23.965ZM23.05 5H17.95L16.53 9.4175L15.5725 9.885C15.1018 10.1153 14.6474 10.3776 14.2125 10.67L13.3275 11.27L8.78753 10.29L6.23753 14.71L9.35003 18.155L9.27503 19.215C9.2391 19.7377 9.2391 20.2623 9.27503 20.785L9.35003 21.845L6.23253 25.29L8.78503 29.71L13.325 28.7325L14.21 29.33C14.6449 29.6224 15.0993 29.8847 15.57 30.115L16.5275 30.5825L17.95 35H23.055L24.48 30.58L25.435 30.115C25.9052 29.8852 26.3588 29.6229 26.7925 29.33L27.675 28.7325L32.2175 29.71L34.7675 25.29L31.6525 21.845L31.7275 20.785C31.7636 20.2615 31.7636 19.736 31.7275 19.2125L31.6525 18.1525L34.77 14.71L32.2175 10.29L27.675 11.265L26.7925 10.67C26.3589 10.377 25.9053 10.1147 25.435 9.885L24.48 9.42L23.0525 5H23.05ZM20.5 12.5C22.4891 12.5 24.3968 13.2902 25.8033 14.6967C27.2099 16.1032 28 18.0109 28 20C28 21.9891 27.2099 23.8968 25.8033 25.3033C24.3968 26.7098 22.4891 27.5 20.5 27.5C18.5109 27.5 16.6032 26.7098 15.1967 25.3033C13.7902 23.8968 13 21.9891 13 20C13 18.0109 13.7902 16.1032 15.1967 14.6967C16.6032 13.2902 18.5109 12.5 20.5 12.5ZM20.5 15C19.1739 15 17.9022 15.5268 16.9645 16.4645C16.0268 17.4021 15.5 18.6739 15.5 20C15.5 21.3261 16.0268 22.5979 16.9645 23.5355C17.9022 24.4732 19.1739 25 20.5 25C21.8261 25 23.0979 24.4732 24.0356 23.5355C24.9732 22.5979 25.5 21.3261 25.5 20C25.5 18.6739 24.9732 17.4021 24.0356 16.4645C23.0979 15.5268 21.8261 15 20.5 15Z" fill="#333333"/>
</svg>
